<?xml version="1.0" encoding="utf-8"?>
<!-- Generator: Adobe Illustrator 21.0.2, SVG Export Plug-In . SVG Version: 6.00 Build 0)  -->
<svg version="1.1" id="Layer_1" xmlns="http://www.w3.org/2000/svg" xmlns:xlink="http://www.w3.org/1999/xlink" x="0px" y="0px"
	 viewBox="0 0 200 40" style="enable-background:new 0 0 200 40;" xml:space="preserve">
<style type="text/css">
	.st0{fill:#FFFFFF;}
</style>
<path class="st0" d="M16.5,11.8H9.2V4.3H4.7v20h4.5v-8.7h7.4v8.7H21v-20h-4.5V11.8z M37.3,15.1c0-2.1-0.4-3.3-1.4-4.2
	c-1.1-1-2.8-1.5-5-1.5c-4.1,0-6.2,1.6-6.4,5h3.8c0.2-1.2,1-1.7,2.6-1.7c1.4,0,2.2,0.5,2.2,1.3c0,0.6-0.3,0.8-1.3,1l-2.3,0.4
	c-4.1,0.7-5.8,2.1-5.8,4.8s2.1,4.5,5.3,4.5c1.7,0,2.7-0.4,4.1-1.5c0.1,0.5,0.1,0.6,0.3,1.1h4.4c-0.5-0.7-0.5-0.9-0.5-2.5V15.1z
	 M33.2,19.6c-0.7,1.2-1.7,1.8-3.1,1.8c-1.4,0-2.2-0.6-2.2-1.5c0-0.9,0.7-1.4,2.2-1.7l1.5-0.3c0.7-0.2,1.1-0.3,1.6-0.5V19.6z
	 M48.5,9.4c-1.5,0-2.4,0.4-4,1.8V9.8h-4.1v14.5h4.3v-8.1c0-1.3,0.1-1.9,0.6-2.4c0.5-0.5,1.1-0.8,1.8-0.8c0.8,0,1.4,0.3,1.7,0.8
	c0.4,0.5,0.5,1.1,0.5,2.6v7.9h4.3v-9.4C53.5,11.5,51.6,9.4,48.5,9.4z M66,10.9c-1-1.1-2.1-1.5-3.7-1.5c-3.9,0-6.5,3.1-6.5,7.7
	c0,4.6,2.6,7.6,6.4,7.6c1.8,0,2.9-0.5,4-2v1.6h4.1v-20H66V10.9z M63.1,21.2c-1.9,0-3.1-1.7-3.1-4.2c0-2.6,1.2-4.2,3.1-4.2
	c1.9,0,3.1,1.7,3.1,4.3C66.2,19.5,64.9,21.2,63.1,21.2z M81.1,15.4l-2.7-0.6c-1.4-0.3-1.8-0.6-1.8-1.1c0-0.7,0.8-1.2,2-1.2
	c1.4,0,2.3,0.6,2.5,1.7h4c-0.4-3.1-2.6-4.7-6.4-4.7c-3.9,0-6.2,1.8-6.2,4.7c0,2.3,1.2,3.5,4.4,4.2l2.6,0.6c1.1,0.3,1.6,0.6,1.6,1.3
	c0,0.9-0.9,1.4-2.2,1.4c-1.7,0-2.6-0.6-2.9-2h-4c0.2,3.2,2.7,5.1,6.8,5.1c4,0,6.5-1.9,6.5-5c0-1.2-0.4-2.3-1.1-2.9
	C83.8,16.1,82.9,15.7,81.1,15.4z M94.6,9.4c-4.5,0-7.7,3.2-7.7,7.6c0,4.5,3.2,7.7,7.7,7.7c4.5,0,7.7-3.2,7.7-7.5
	C102.3,12.5,99.2,9.4,94.6,9.4z M94.6,21.3c-2.2,0-3.4-1.5-3.4-4.3c0-2.7,1.2-4.2,3.4-4.2c2.2,0,3.4,1.5,3.4,4.3
	C98,19.8,96.8,21.3,94.6,21.3z M112.7,9.4c-1.5,0-2.4,0.4-4,1.8V9.8h-4.1v14.5h4.3v-8.1c0-1.3,0.1-1.9,0.6-2.4
	c0.5-0.5,1.1-0.8,1.8-0.8c0.8,0,1.4,0.3,1.7,0.8c0.4,0.5,0.5,1.1,0.5,2.6v7.9h4.3v-9.4C117.8,11.5,115.9,9.4,112.7,9.4z M125.6,5.4
	h-4.3V10h-2v3h2v6.6c0,2.3,0.2,3,0.8,3.8c0.6,0.7,1.6,1,3.4,1h2.6v-3.2h-1.5c-1,0-1.1-0.2-1.1-2.5V13h2.6v-3h-2.6V5.4z M143,15.1
	c0-2.1-0.4-3.3-1.4-4.2c-1.1-1-2.8-1.5-5-1.5c-4.1,0-6.2,1.6-6.4,5h3.8c0.2-1.2,1-1.7,2.6-1.7c1.4,0,2.2,0.5,2.2,1.3
	c0,0.6-0.3,0.8-1.3,1l-2.3,0.4c-4.1,0.7-5.8,2.1-5.8,4.8s2.1,4.5,5.3,4.5c1.7,0,2.7-0.4,4.1-1.5c0.1,0.5,0.1,0.6,0.3,1.1h4.4
	c-0.5-0.7-0.5-0.9-0.5-2.5V15.1z M138.9,19.6c-0.7,1.2-1.7,1.8-3.1,1.8c-1.4,0-2.2-0.6-2.2-1.5c0-0.9,0.7-1.4,2.2-1.7l1.5-0.3
	c0.7-0.2,1.1-0.3,1.6-0.5V19.6z M154.3,9.4c-1.5,0-2.6,0.4-4,1.4V4.3H146v20h4.1v-1.7c1.1,1.5,2.2,2,4,2c3.7,0,6.4-3.3,6.4-7.8
	C160.5,12.4,158,9.4,154.3,9.4z M153.2,21.2c-1.9,0-3.1-1.7-3.1-4.2c0-2.5,1.2-4.2,3.1-4.2c1.9,0,3.1,1.6,3.1,4.2
	C156.3,19.6,155.1,21.2,153.2,21.2z M162.8,24.3h4.3v-20h-4.3V24.3z M183.2,13.7c-1.1-2.7-3.4-4.3-6.5-4.3c-4.4,0-7.4,3.1-7.4,7.7
	c0,4.6,3,7.6,7.4,7.6c3.5,0,6.2-1.8,7-4.6h-4.3c-0.6,0.9-1.4,1.3-2.5,1.3c-1.8,0-3-1.1-3.3-3.1h10.3
	C183.9,16.3,183.7,14.9,183.2,13.7z M173.7,15.3c0.3-1.7,1.4-2.6,3.1-2.6c1.7,0,2.6,0.9,2.8,2.6H173.7z M186.1,26.9v8.5h8.5v-8.5
	H186.1z"/>
</svg>
